<svg width="20" height="20" viewBox="0 0 20 20" fill="none" xmlns="http://www.w3.org/2000/svg">
<path fill-rule="evenodd" clip-rule="evenodd" d="M10 20C15.5228 20 20 15.5228 20 10C20 4.47715 15.5228 0 10 0C4.47715 0 0 4.47715 0 10C0 15.5228 4.47715 20 10 20ZM14.9497 5.05025C15.3402 5.44077 15.3402 6.07394 14.9497 6.46446L11.4142 10L14.9497 13.5355C15.3402 13.9261 15.3402 14.5592 14.9497 14.9498C14.5592 15.3403 13.926 15.3403 13.5355 14.9498L9.99996 11.4142L6.46443 14.9497C6.07391 15.3403 5.44074 15.3403 5.05022 14.9497C4.65969 14.5592 4.65969 13.9261 5.05022 13.5355L8.58575 10L5.05022 6.46447C4.65969 6.07395 4.65969 5.44078 5.05022 5.05026C5.44074 4.65973 6.07391 4.65973 6.46443 5.05026L9.99996 8.58579L13.5355 5.05025C13.926 4.65972 14.5592 4.65972 14.9497 5.05025Z" fill="#ACB5BE"/>
</svg>
